M48
; DRILL file {KiCad (6.0.10-0)} date Thursday, July 20, 2023 at 09:23:24 PM
; FORMAT={-:-/ absolute / inch / decimal}
; #@! TF.CreationDate,2023-07-20T21:23:24-04:00
; #@! TF.GenerationSoftware,Kicad,Pcbnew,(6.0.10-0)
; #@! TF.FileFunction,NonPlated,1,2,NPTH
FMAT,2
INCH
; #@! TA.AperFunction,NonPlated,NPTH,ComponentDrill
T1C0.0472
; #@! TA.AperFunction,NonPlated,NPTH,ComponentDrill
T2C0.1378
%
G90
G05
T1
X3.1102Y-4.7638
X3.1102Y-4.8622
X3.3071Y-4.5669
X3.5039Y-4.7638
X3.5039Y-4.8622
X4.252Y-4.7638
X4.252Y-4.8622
X4.4488Y-4.5669
X4.6457Y-4.7638
X4.6457Y-4.8622
X5.3937Y-4.7638
X5.3937Y-4.8622
X5.5906Y-4.5669
X5.7874Y-4.7638
X5.7874Y-4.8622
X6.4567Y-4.7638
X6.4567Y-4.8622
X6.6535Y-4.5669
X6.8504Y-4.7638
X6.8504Y-4.8622
T2
X3.4252Y-3.0197
X4.6063Y-3.0197
T0
M30
