M48
; DRILL file {KiCad (6.0.10-0)} date Thursday, July 20, 2023 at 09:23:24 PM
; FORMAT={-:-/ absolute / inch / decimal}
; #@! TF.CreationDate,2023-07-20T21:23:24-04:00
; #@! TF.GenerationSoftware,Kicad,Pcbnew,(6.0.10-0)
; #@! TF.FileFunction,Plated,1,2,PTH
FMAT,2
INCH
; #@! TA.AperFunction,Plated,PTH,ComponentDrill
T1C0.0079
; #@! TA.AperFunction,Plated,PTH,ViaDrill
T2C0.0157
; #@! TA.AperFunction,Plated,PTH,ComponentDrill
T3C0.0157
; #@! TA.AperFunction,Plated,PTH,ComponentDrill
T4C0.0374
; #@! TA.AperFunction,Plated,PTH,ComponentDrill
T5C0.0394
; #@! TA.AperFunction,Plated,PTH,ComponentDrill
T6C0.0472
; #@! TA.AperFunction,Plated,PTH,ComponentDrill
T7C0.1378
%
G90
G05
T1
X6.488Y-2.1782
X6.488Y-2.2383
X6.518Y-2.1482
X6.518Y-2.2083
X6.518Y-2.2683
X6.548Y-2.1782
X6.548Y-2.2383
X6.5781Y-2.1482
X6.5781Y-2.2083
X6.5781Y-2.2683
X6.6081Y-2.1782
X6.6081Y-2.2383
T2
X3.3071Y-4.3307
X4.252Y-4.252
X4.4488Y-4.3307
X5.3543Y-4.3307
X5.4724Y-2.4016
X5.5906Y-4.3307
X5.8268Y-1.9685
X5.9449Y-2.7559
X6.063Y-2.7953
X6.1417Y-2.1654
X6.1417Y-2.2478
X6.1417Y-2.7165
X6.4567Y-4.2126
X6.6535Y-4.3307
X6.94Y-2.874
X6.9794Y-2.3622
X7.0079Y-1.9685
T4
X7.1841Y-1.9783
X7.1841Y-2.0768
X7.1841Y-2.1752
X7.1841Y-2.2736
T5
X5.1772Y-2.0472
X5.2756Y-2.0472
X5.7087Y-2.3425
X5.7087Y-2.4409
X6.1024Y-2.9921
X6.2008Y-2.9921
T6
X4.1024Y-1.9685
X4.6063Y-1.9685
T7
X3.189Y-1.6535
X3.7402Y-4.7244
X7.2441Y-2.5984
X7.2441Y-4.7244
T3
G00X3.1102Y-4.5472
M15
G01X3.1102Y-4.5866
M16
G05
G00X3.2874Y-4.7638
M15
G01X3.3268Y-4.7638
M16
G05
G00X3.5039Y-4.5866
M15
G01X3.5039Y-4.5472
M16
G05
G00X4.252Y-4.5472
M15
G01X4.252Y-4.5866
M16
G05
G00X4.4291Y-4.7638
M15
G01X4.4685Y-4.7638
M16
G05
G00X4.6457Y-4.5866
M15
G01X4.6457Y-4.5472
M16
G05
G00X5.3937Y-4.5472
M15
G01X5.3937Y-4.5866
M16
G05
G00X5.5709Y-4.7638
M15
G01X5.6102Y-4.7638
M16
G05
G00X5.7874Y-4.5866
M15
G01X5.7874Y-4.5472
M16
G05
G00X6.4567Y-4.5472
M15
G01X6.4567Y-4.5866
M16
G05
G00X6.6339Y-4.7638
M15
G01X6.6732Y-4.7638
M16
G05
G00X6.8504Y-4.5866
M15
G01X6.8504Y-4.5472
M16
G05
T0
M30
