%TF.GenerationSoftware,KiCad,Pcbnew,(6.0.10-0)*%
%TF.CreationDate,2023-07-20T21:22:02-04:00*%
%TF.ProjectId,Buzzers v2,42757a7a-6572-4732-9076-322e6b696361,rev?*%
%TF.SameCoordinates,Original*%
%TF.FileFunction,Paste,Top*%
%TF.FilePolarity,Positive*%
%FSLAX46Y46*%
G04 Gerber Fmt 4.6, Leading zero omitted, Abs format (unit mm)*
G04 Created by KiCad (PCBNEW (6.0.10-0)) date 2023-07-20 21:22:02*
%MOMM*%
%LPD*%
G01*
G04 APERTURE LIST*
G04 Aperture macros list*
%AMRoundRect*
0 Rectangle with rounded corners*
0 $1 Rounding radius*
0 $2 $3 $4 $5 $6 $7 $8 $9 X,Y pos of 4 corners*
0 Add a 4 corners polygon primitive as box body*
4,1,4,$2,$3,$4,$5,$6,$7,$8,$9,$2,$3,0*
0 Add four circle primitives for the rounded corners*
1,1,$1+$1,$2,$3*
1,1,$1+$1,$4,$5*
1,1,$1+$1,$6,$7*
1,1,$1+$1,$8,$9*
0 Add four rect primitives between the rounded corners*
20,1,$1+$1,$2,$3,$4,$5,0*
20,1,$1+$1,$4,$5,$6,$7,0*
20,1,$1+$1,$6,$7,$8,$9,0*
20,1,$1+$1,$8,$9,$2,$3,0*%
G04 Aperture macros list end*
%ADD10RoundRect,0.250000X0.625000X-0.312500X0.625000X0.312500X-0.625000X0.312500X-0.625000X-0.312500X0*%
%ADD11RoundRect,0.250000X-0.312500X-0.625000X0.312500X-0.625000X0.312500X0.625000X-0.312500X0.625000X0*%
%ADD12RoundRect,0.250000X0.312500X0.625000X-0.312500X0.625000X-0.312500X-0.625000X0.312500X-0.625000X0*%
%ADD13RoundRect,0.250000X-0.325000X-0.650000X0.325000X-0.650000X0.325000X0.650000X-0.325000X0.650000X0*%
%ADD14RoundRect,0.079500X0.079500X0.100500X-0.079500X0.100500X-0.079500X-0.100500X0.079500X-0.100500X0*%
%ADD15R,1.500000X0.900000*%
%ADD16R,0.900000X1.500000*%
%ADD17R,1.050000X1.050000*%
%ADD18RoundRect,0.250000X1.050000X0.550000X-1.050000X0.550000X-1.050000X-0.550000X1.050000X-0.550000X0*%
%ADD19RoundRect,0.250000X0.650000X-0.325000X0.650000X0.325000X-0.650000X0.325000X-0.650000X-0.325000X0*%
%ADD20R,2.000000X1.500000*%
%ADD21R,2.000000X3.800000*%
G04 APERTURE END LIST*
D10*
%TO.C,R9*%
X118000000Y-111462500D03*
X118000000Y-108537500D03*
%TD*%
D11*
%TO.C,R4*%
X137537500Y-110000000D03*
X140462500Y-110000000D03*
%TD*%
D12*
%TO.C,R1*%
X142462500Y-68000000D03*
X139537500Y-68000000D03*
%TD*%
D11*
%TO.C,R2*%
X78950000Y-110000000D03*
X81875000Y-110000000D03*
%TD*%
D10*
%TO.C,R6*%
X146600000Y-55000000D03*
X146600000Y-52075000D03*
%TD*%
D11*
%TO.C,R5*%
X164075000Y-110000000D03*
X167000000Y-110000000D03*
%TD*%
D10*
%TO.C,R11*%
X153000000Y-68000000D03*
X153000000Y-65075000D03*
%TD*%
D13*
%TO.C,C3*%
X151525000Y-53000000D03*
X154475000Y-53000000D03*
%TD*%
D14*
%TO.C,D1*%
X144655000Y-68000000D03*
X145345000Y-68000000D03*
%TD*%
D15*
%TO.C,U2*%
X158250000Y-48750000D03*
X158250000Y-50020000D03*
X158250000Y-51290000D03*
X158250000Y-52560000D03*
X158250000Y-53830000D03*
X158250000Y-55100000D03*
X158250000Y-56370000D03*
X158250000Y-57640000D03*
X158250000Y-58910000D03*
X158250000Y-60180000D03*
X158250000Y-61450000D03*
X158250000Y-62720000D03*
X158250000Y-63990000D03*
X158250000Y-65260000D03*
D16*
X161290000Y-66510000D03*
X162560000Y-66510000D03*
X163830000Y-66510000D03*
X165100000Y-66510000D03*
X166370000Y-66510000D03*
X167640000Y-66510000D03*
X168910000Y-66510000D03*
X170180000Y-66510000D03*
X171450000Y-66510000D03*
X172720000Y-66510000D03*
D15*
X175750000Y-65260000D03*
X175750000Y-63990000D03*
X175750000Y-62720000D03*
X175750000Y-61450000D03*
X175750000Y-60180000D03*
X175750000Y-58910000D03*
X175750000Y-57640000D03*
X175750000Y-56370000D03*
X175750000Y-55100000D03*
X175750000Y-53830000D03*
X175750000Y-52560000D03*
X175750000Y-51290000D03*
X175750000Y-50020000D03*
X175750000Y-48750000D03*
D17*
X164795000Y-57615000D03*
X164795000Y-56090000D03*
X166320000Y-54565000D03*
X166320000Y-56090000D03*
X164795000Y-54565000D03*
X167845000Y-56090000D03*
X166320000Y-57615000D03*
X167845000Y-57615000D03*
X167845000Y-54565000D03*
%TD*%
D18*
%TO.C,C2*%
X135800000Y-68000000D03*
X132200000Y-68000000D03*
%TD*%
D10*
%TO.C,R8*%
X147000000Y-111462500D03*
X147000000Y-108537500D03*
%TD*%
%TO.C,R7*%
X174000000Y-111000000D03*
X174000000Y-108075000D03*
%TD*%
D19*
%TO.C,C5*%
X153000000Y-61475000D03*
X153000000Y-58525000D03*
%TD*%
D10*
%TO.C,R10*%
X89000000Y-111462500D03*
X89000000Y-108537500D03*
%TD*%
D11*
%TO.C,R3*%
X108125000Y-109910000D03*
X111050000Y-109910000D03*
%TD*%
D20*
%TO.C,U1*%
X136150000Y-63300000D03*
D21*
X129850000Y-61000000D03*
D20*
X136150000Y-61000000D03*
X136150000Y-58700000D03*
%TD*%
D13*
%TO.C,C4*%
X151525000Y-50000000D03*
X154475000Y-50000000D03*
%TD*%
D19*
%TO.C,C1*%
X140000000Y-55475000D03*
X140000000Y-52525000D03*
%TD*%
M02*
